<mxfile host="app.diagrams.net" modified="2023-12-25T20:50:45.601Z" agent="Mozilla/5.0 (Windows NT 10.0; Win64; x64) AppleWebKit/537.36 (KHTML, like Gecko) Chrome/120.0.0.0 Safari/537.36" etag="roVwrWmWBXrGJ2hx0EZG" version="22.1.11" type="github">
  <diagram name="Page-1" id="pbrUZyzqcryHm647Kj-w">
    <mxGraphModel dx="2404" dy="655" grid="1" gridSize="10" guides="1" tooltips="1" connect="1" arrows="1" fold="1" page="1" pageScale="1" pageWidth="1169" pageHeight="827" math="0" shadow="0">
      <root>
        <mxCell id="0" />
        <mxCell id="1" parent="0" />
        <mxCell id="W5Dr0Cx-YYXMBpmSqF3a-1" value="" style="group" vertex="1" connectable="0" parent="1">
          <mxGeometry x="400" y="200" width="120" height="200" as="geometry" />
        </mxCell>
        <mxCell id="W5Dr0Cx-YYXMBpmSqF3a-2" value="GREEN Supermarket" style="rounded=0;whiteSpace=wrap;html=1;" vertex="1" parent="W5Dr0Cx-YYXMBpmSqF3a-1">
          <mxGeometry width="120" height="40" as="geometry" />
        </mxCell>
        <mxCell id="W5Dr0Cx-YYXMBpmSqF3a-3" value="" style="whiteSpace=wrap;html=1;aspect=fixed;align=left;" vertex="1" parent="W5Dr0Cx-YYXMBpmSqF3a-1">
          <mxGeometry y="40" width="120" height="120" as="geometry" />
        </mxCell>
        <mxCell id="W5Dr0Cx-YYXMBpmSqF3a-4" value="" style="rounded=0;whiteSpace=wrap;html=1;align=left;" vertex="1" parent="W5Dr0Cx-YYXMBpmSqF3a-1">
          <mxGeometry y="160" width="120" height="40" as="geometry" />
        </mxCell>
        <mxCell id="W5Dr0Cx-YYXMBpmSqF3a-5" value="" style="group" vertex="1" connectable="0" parent="1">
          <mxGeometry x="160" y="414" width="120" height="200" as="geometry" />
        </mxCell>
        <mxCell id="W5Dr0Cx-YYXMBpmSqF3a-6" value="&lt;span style=&quot;background-color: initial;&quot;&gt;- firstname: string&lt;/span&gt;&lt;br&gt;&lt;span style=&quot;background-color: initial;&quot;&gt;-lastname: string&lt;/span&gt;&lt;br&gt;&lt;span style=&quot;background-color: initial;&quot;&gt;-empid: int&lt;/span&gt;&lt;br&gt;&lt;span style=&quot;background-color: initial;&quot;&gt;-designation-string&lt;/span&gt;&lt;br&gt;&lt;div style=&quot;&quot;&gt;&lt;span style=&quot;background-color: initial;&quot;&gt;-phonenumber: int&lt;/span&gt;&lt;/div&gt;" style="whiteSpace=wrap;html=1;aspect=fixed;align=left;" vertex="1" parent="W5Dr0Cx-YYXMBpmSqF3a-5">
          <mxGeometry y="40" width="120" height="120" as="geometry" />
        </mxCell>
        <mxCell id="W5Dr0Cx-YYXMBpmSqF3a-7" value="Employee" style="rounded=0;whiteSpace=wrap;html=1;" vertex="1" parent="W5Dr0Cx-YYXMBpmSqF3a-5">
          <mxGeometry width="120" height="40" as="geometry" />
        </mxCell>
        <mxCell id="W5Dr0Cx-YYXMBpmSqF3a-8" value="+printDetails:void" style="rounded=0;whiteSpace=wrap;html=1;align=left;" vertex="1" parent="W5Dr0Cx-YYXMBpmSqF3a-5">
          <mxGeometry y="160" width="120" height="40" as="geometry" />
        </mxCell>
        <mxCell id="W5Dr0Cx-YYXMBpmSqF3a-9" value="" style="rounded=0;whiteSpace=wrap;html=1;" vertex="1" parent="1">
          <mxGeometry x="-50" y="10" width="120" height="40" as="geometry" />
        </mxCell>
        <mxCell id="W5Dr0Cx-YYXMBpmSqF3a-10" value="" style="whiteSpace=wrap;html=1;aspect=fixed;align=left;" vertex="1" parent="1">
          <mxGeometry x="-50" y="50" width="120" height="120" as="geometry" />
        </mxCell>
        <mxCell id="W5Dr0Cx-YYXMBpmSqF3a-11" value="" style="rounded=0;whiteSpace=wrap;html=1;align=left;" vertex="1" parent="1">
          <mxGeometry x="-50" y="170" width="120" height="40" as="geometry" />
        </mxCell>
        <mxCell id="W5Dr0Cx-YYXMBpmSqF3a-12" value="" style="endArrow=classic;html=1;rounded=0;dashed=1;exitX=0;exitY=0.5;exitDx=0;exitDy=0;entryX=1;entryY=0.25;entryDx=0;entryDy=0;" edge="1" parent="1" source="W5Dr0Cx-YYXMBpmSqF3a-2" target="W5Dr0Cx-YYXMBpmSqF3a-7">
          <mxGeometry width="50" height="50" relative="1" as="geometry">
            <mxPoint x="400" y="200" as="sourcePoint" />
            <mxPoint x="280" y="440" as="targetPoint" />
            <Array as="points">
              <mxPoint x="320" y="220" />
              <mxPoint x="320" y="424" />
            </Array>
          </mxGeometry>
        </mxCell>
        <mxCell id="W5Dr0Cx-YYXMBpmSqF3a-17" value="" style="endArrow=classic;html=1;rounded=0;exitX=1;exitY=0.5;exitDx=0;exitDy=0;entryX=0;entryY=0.5;entryDx=0;entryDy=0;dashed=1;" edge="1" parent="1" source="W5Dr0Cx-YYXMBpmSqF3a-2" target="W5Dr0Cx-YYXMBpmSqF3a-13">
          <mxGeometry width="50" height="50" relative="1" as="geometry">
            <mxPoint x="480" y="340" as="sourcePoint" />
            <mxPoint x="530" y="290" as="targetPoint" />
            <Array as="points">
              <mxPoint x="600" y="220" />
              <mxPoint x="600" y="340" />
            </Array>
          </mxGeometry>
        </mxCell>
        <mxCell id="W5Dr0Cx-YYXMBpmSqF3a-18" value="" style="group" vertex="1" connectable="0" parent="1">
          <mxGeometry x="650" y="320" width="120" height="200" as="geometry" />
        </mxCell>
        <mxCell id="W5Dr0Cx-YYXMBpmSqF3a-13" value="Customer" style="rounded=0;whiteSpace=wrap;html=1;" vertex="1" parent="W5Dr0Cx-YYXMBpmSqF3a-18">
          <mxGeometry width="120" height="40" as="geometry" />
        </mxCell>
        <mxCell id="W5Dr0Cx-YYXMBpmSqF3a-14" value="- firstname: string&lt;br style=&quot;border-color: var(--border-color);&quot;&gt;&lt;span style=&quot;border-color: var(--border-color); background-color: initial;&quot;&gt;-lastname: string&lt;/span&gt;" style="whiteSpace=wrap;html=1;aspect=fixed;align=left;" vertex="1" parent="W5Dr0Cx-YYXMBpmSqF3a-18">
          <mxGeometry y="40" width="120" height="120" as="geometry" />
        </mxCell>
        <mxCell id="W5Dr0Cx-YYXMBpmSqF3a-15" value="" style="rounded=0;whiteSpace=wrap;html=1;align=left;" vertex="1" parent="W5Dr0Cx-YYXMBpmSqF3a-18">
          <mxGeometry y="160" width="120" height="40" as="geometry" />
        </mxCell>
      </root>
    </mxGraphModel>
  </diagram>
</mxfile>
